P3
50 30
255
0 255 119 0 255 30 59 255 0 150 255 0 150 255 0 240 255 0 255 179 0 255 179 0 255 179 0 240 255 0 150 255 0 150 255 0 59 255 0 0 255 30 0 255 119 0 255 209 0 255 209 0 255 209 0 209 255 0 209 255 0 209 255 0 119 255 0 29 255 0 29 255 60 0 255 149 0 255 239 0 255 239 0 255 255 0 180 239 0 255 239 0 255 149 0 255 149 0 255 149 0 255 60 0 255 60 0 255 60 0 255 60 0 255 60 0 255 60 0 255 60 0 255 149 0 255 149 0 255 149 0 255 239 0 255 239 0 255 255 0 180 255 0 90 255 0 90 255 0 0 
0 255 30 59 255 0 150 255 0 150 255 0 240 255 0 255 179 0 255 89 0 255 89 0 255 89 0 255 179 0 240 255 0 150 255 0 59 255 0 0 255 30 0 255 119 0 255 119 0 255 119 0 255 119 0 255 209 0 255 209 0 209 255 0 209 255 0 119 255 0 29 255 0 29 255 60 0 255 149 0 255 239 0 255 239 0 255 149 0 255 149 0 255 149 0 255 60 0 255 60 0 255 0 29 255 0 29 255 0 29 255 0 29 255 0 29 255 0 29 255 0 29 255 60 0 255 60 0 255 149 0 255 149 0 255 239 0 255 239 0 255 255 0 180 255 0 90 255 0 90 
0 255 30 59 255 0 150 255 0 240 255 0 255 179 0 255 89 0 255 89 0 0 0 0 255 89 0 255 179 0 240 255 0 150 255 0 59 255 0 0 255 30 0 255 30 0 255 30 0 255 30 0 255 30 0 255 119 0 255 119 0 255 209 0 255 209 0 209 255 0 119 255 0 29 255 60 0 255 149 0 255 149 0 255 149 0 255 149 0 255 60 0 255 60 0 255 0 29 255 0 29 255 0 119 255 0 119 255 0 119 255 0 119 255 0 119 255 0 119 255 0 119 255 0 29 255 0 29 255 60 0 255 60 0 255 149 0 255 149 0 255 239 0 255 255 0 180 255 0 90 
59 255 0 150 255 0 150 255 0 240 255 0 255 179 0 255 89 0 0 0 0 255 89 0 255 89 0 255 179 0 240 255 0 150 255 0 150 255 0 59 255 0 59 255 0 59 255 0 59 255 0 59 255 0 0 255 30 0 255 30 0 255 119 0 255 209 0 209 255 0 209 255 0 119 255 0 29 255 60 0 255 149 0 255 60 0 255 60 0 255 0 29 255 0 29 255 0 119 255 0 119 255 0 209 255 0 209 255 0 209 255 0 209 255 0 209 255 0 209 255 0 209 255 0 119 255 0 119 255 0 29 255 0 29 255 60 0 255 149 0 255 149 0 255 239 0 255 255 0 180 
59 255 0 150 255 0 240 255 0 255 179 0 255 89 0 255 89 0 0 0 0 255 89 0 255 179 0 240 255 0 240 255 0 240 255 0 150 255 0 150 255 0 150 255 0 150 255 0 150 255 0 150 255 0 59 255 0 0 255 30 0 255 30 0 255 119 0 255 209 0 209 255 0 119 255 0 29 255 60 0 255 60 0 255 0 29 255 0 29 255 0 119 255 0 119 255 0 209 255 0 209 255 0 209 255 0 255 209 0 255 209 0 255 209 0 255 209 0 255 209 0 209 255 0 209 255 0 209 255 0 119 255 0 29 255 0 29 255 60 0 255 149 0 255 239 0 255 239 0 255 
59 255 0 150 255 0 240 255 0 255 179 0 255 89 0 0 0 0 255 89 0 255 89 0 255 179 0 255 179 0 255 179 0 255 179 0 240 255 0 150 255 0 240 255 0 240 255 0 240 255 0 150 255 0 150 255 0 59 255 0 0 255 30 0 255 119 0 255 209 0 209 255 0 209 255 0 119 255 0 29 255 0 29 255 0 29 255 0 119 255 0 209 255 0 209 255 0 209 255 0 255 209 0 255 209 0 255 119 0 255 119 0 255 119 0 255 119 0 255 119 0 255 209 0 255 209 0 209 255 0 209 255 0 119 255 0 29 255 0 29 255 60 0 255 149 0 255 239 0 255 
59 255 0 150 255 0 240 255 0 255 179 0 255 89 0 0 0 0 0 0 0 255 89 0 255 179 0 255 89 0 255 89 0 255 89 0 255 179 0 240 255 0 255 179 0 255 179 0 255 179 0 240 255 0 150 255 0 150 255 0 59 255 0 0 255 30 0 255 119 0 255 209 0 209 255 0 119 255 0 29 255 0 119 255 0 119 255 0 209 255 0 209 255 0 255 209 0 255 209 0 255 119 0 255 119 0 255 30 0 255 30 0 255 30 0 255 30 0 255 30 0 255 119 0 255 119 0 255 209 0 255 209 0 209 255 0 119 255 0 29 255 60 0 255 149 0 255 149 0 255 
59 255 0 150 255 0 240 255 0 255 179 0 255 89 0 255 89 0 255 89 0 255 89 0 255 179 0 255 89 0 0 0 0 255 89 0 255 89 0 255 179 0 255 89 0 255 89 0 255 89 0 255 179 0 240 255 0 150 255 0 59 255 0 0 255 30 0 255 119 0 255 209 0 209 255 0 119 255 0 119 255 0 209 255 0 209 255 0 255 209 0 255 209 0 255 119 0 255 119 0 255 30 0 255 30 59 255 0 59 255 0 59 255 0 59 255 0 59 255 0 0 255 30 0 255 30 0 255 119 0 255 209 0 209 255 0 209 255 0 119 255 0 29 255 60 0 255 149 0 255 
59 255 0 150 255 0 150 255 0 240 255 0 255 179 0 255 179 0 255 179 0 255 179 0 255 179 0 255 89 0 255 89 0 0 0 0 255 89 0 255 89 0 255 89 0 0 0 0 255 89 0 255 179 0 240 255 0 150 255 0 59 255 0 0 255 30 0 255 119 0 255 209 0 209 255 0 119 255 0 209 255 0 209 255 0 255 209 0 255 209 0 255 119 0 255 30 0 255 30 59 255 0 59 255 0 150 255 0 150 255 0 150 255 0 150 255 0 150 255 0 59 255 0 0 255 30 0 255 30 0 255 119 0 255 209 0 209 255 0 119 255 0 29 255 60 0 255 149 0 255 
0 255 30 59 255 0 150 255 0 150 255 0 240 255 0 240 255 0 240 255 0 240 255 0 240 255 0 255 179 0 255 89 0 0 0 0 255 89 0 255 89 0 0 0 0 255 89 0 255 89 0 255 179 0 240 255 0 150 255 0 59 255 0 0 255 30 0 255 119 0 255 209 0 209 255 0 209 255 0 255 209 0 255 209 0 255 119 0 255 119 0 255 30 0 255 30 59 255 0 150 255 0 150 255 0 150 255 0 240 255 0 240 255 0 240 255 0 150 255 0 150 255 0 59 255 0 0 255 30 0 255 119 0 255 209 0 209 255 0 209 255 0 119 255 0 29 255 60 0 255 
0 255 30 0 255 30 59 255 0 150 255 0 150 255 0 150 255 0 150 255 0 240 255 0 255 179 0 255 89 0 255 89 0 255 89 0 255 89 0 255 89 0 0 0 0 255 89 0 255 179 0 240 255 0 150 255 0 150 255 0 59 255 0 0 255 30 0 255 119 0 255 209 0 209 255 0 255 209 0 255 209 0 255 119 0 255 30 0 255 30 59 255 0 59 255 0 150 255 0 150 255 0 240 255 0 240 255 0 255 179 0 255 179 0 255 179 0 240 255 0 150 255 0 150 255 0 59 255 0 0 255 30 0 255 119 0 255 209 0 209 255 0 119 255 0 29 255 60 0 255 
0 255 119 0 255 30 0 255 30 59 255 0 59 255 0 150 255 0 240 255 0 255 179 0 255 89 0 255 89 0 0 0 0 255 89 0 255 89 0 0 0 0 255 89 0 255 89 0 255 179 0 240 255 0 150 255 0 59 255 0 0 255 30 0 255 119 0 255 209 0 255 209 0 255 209 0 255 119 0 255 119 0 255 30 0 255 30 59 255 0 150 255 0 150 255 0 150 255 0 240 255 0 255 179 0 255 179 0 255 89 0 255 89 0 255 89 0 255 179 0 240 255 0 150 255 0 59 255 0 0 255 30 0 255 119 0 255 209 0 209 255 0 119 255 0 29 255 60 0 255 
0 255 209 0 255 119 0 255 30 59 255 0 150 255 0 150 255 0 240 255 0 255 179 0 255 89 0 0 0 0 255 89 0 255 89 0 255 89 0 0 0 0 255 89 0 255 179 0 240 255 0 150 255 0 150 255 0 59 255 0 0 255 30 0 255 119 0 255 209 0 255 209 0 255 119 0 255 30 0 255 30 59 255 0 59 255 0 150 255 0 150 255 0 240 255 0 240 255 0 255 179 0 255 89 0 255 89 0 255 89 0 0 0 0 255 89 0 255 179 0 240 255 0 150 255 0 59 255 0 0 255 30 0 255 119 0 255 209 0 209 255 0 119 255 0 29 255 60 0 255 
0 255 119 0 255 30 59 255 0 150 255 0 150 255 0 240 255 0 255 179 0 255 89 0 255 89 0 0 0 0 255 89 0 255 89 0 0 0 0 255 89 0 255 89 0 255 179 0 240 255 0 150 255 0 59 255 0 0 255 30 0 255 119 0 255 209 0 255 119 0 255 119 0 255 30 0 255 30 59 255 0 150 255 0 150 255 0 150 255 0 240 255 0 255 179 0 255 179 0 255 89 0 255 89 0 0 0 0 255 89 0 255 89 0 255 89 0 255 179 0 240 255 0 150 255 0 59 255 0 0 255 30 0 255 119 0 255 209 0 209 255 0 119 255 0 29 255 60 0 255 
0 255 119 0 255 30 59 255 0 150 255 0 240 255 0 255 179 0 255 89 0 255 89 0 0 0 0 255 89 0 255 89 0 0 0 0 255 89 0 255 89 0 255 179 0 240 255 0 150 255 0 150 255 0 59 255 0 0 255 30 0 255 119 0 255 119 0 255 30 0 255 30 59 255 0 59 255 0 150 255 0 150 255 0 240 255 0 240 255 0 255 179 0 255 89 0 255 89 0 255 89 0 0 0 0 255 89 0 255 89 0 255 179 0 255 179 0 240 255 0 150 255 0 150 255 0 59 255 0 0 255 30 0 255 119 0 255 209 0 209 255 0 119 255 0 29 255 60 0 255 
0 255 119 0 255 30 59 255 0 150 255 0 240 255 0 255 179 0 255 89 0 0 0 0 255 89 0 255 89 0 0 0 0 255 89 0 255 89 0 255 179 0 240 255 0 150 255 0 150 255 0 59 255 0 0 255 30 0 255 119 0 255 119 0 255 30 0 255 30 59 255 0 150 255 0 150 255 0 150 255 0 240 255 0 255 179 0 255 179 0 255 89 0 255 89 0 0 0 0 0 0 0 255 89 0 255 89 0 255 179 0 240 255 0 240 255 0 150 255 0 150 255 0 59 255 0 0 255 30 0 255 119 0 255 209 0 209 255 0 209 255 0 119 255 0 29 255 60 0 255 
0 255 119 0 255 30 59 255 0 150 255 0 240 255 0 255 179 0 255 89 0 255 89 0 0 0 0 0 0 0 255 89 0 255 89 0 255 179 0 240 255 0 150 255 0 150 255 0 59 255 0 0 255 30 0 255 30 0 255 119 0 255 30 0 255 30 59 255 0 150 255 0 150 255 0 240 255 0 240 255 0 255 179 0 255 89 0 255 89 0 255 89 0 0 0 0 255 89 0 255 89 0 255 89 0 255 179 0 240 255 0 150 255 0 150 255 0 150 255 0 59 255 0 0 255 30 0 255 30 0 255 119 0 255 209 0 209 255 0 119 255 0 29 255 60 0 255 149 0 255 
0 255 119 0 255 30 59 255 0 150 255 0 150 255 0 240 255 0 255 179 0 255 89 0 255 89 0 255 89 0 255 89 0 255 179 0 240 255 0 150 255 0 150 255 0 59 255 0 0 255 30 0 255 30 0 255 119 0 255 30 0 255 30 59 255 0 150 255 0 150 255 0 240 255 0 255 179 0 255 179 0 255 89 0 255 89 0 0 0 0 0 0 0 255 89 0 255 89 0 255 179 0 255 179 0 240 255 0 150 255 0 150 255 0 150 255 0 59 255 0 0 255 30 0 255 30 0 255 119 0 255 209 0 209 255 0 209 255 0 119 255 0 29 255 60 0 255 149 0 255 
0 255 209 0 255 119 0 255 30 59 255 0 150 255 0 150 255 0 240 255 0 255 179 0 255 179 0 255 179 0 255 179 0 240 255 0 150 255 0 150 255 0 59 255 0 0 255 30 0 255 30 0 255 119 0 255 119 0 255 30 59 255 0 150 255 0 150 255 0 240 255 0 255 179 0 255 89 0 255 89 0 255 89 0 0 0 0 255 89 0 255 89 0 255 89 0 255 179 0 240 255 0 240 255 0 240 255 0 240 255 0 240 255 0 150 255 0 150 255 0 59 255 0 0 255 30 0 255 119 0 255 209 0 209 255 0 209 255 0 119 255 0 29 255 60 0 255 149 0 255 
0 255 209 0 255 119 0 255 30 0 255 30 59 255 0 150 255 0 150 255 0 240 255 0 240 255 0 240 255 0 240 255 0 150 255 0 150 255 0 59 255 0 0 255 30 0 255 30 0 255 119 0 255 119 0 255 30 59 255 0 150 255 0 150 255 0 240 255 0 255 179 0 255 89 0 255 89 0 0 0 0 0 0 0 255 89 0 255 89 0 255 179 0 255 179 0 255 179 0 255 179 0 255 179 0 255 179 0 255 179 0 255 179 0 240 255 0 150 255 0 150 255 0 59 255 0 0 255 30 0 255 119 0 255 209 0 209 255 0 119 255 0 29 255 60 0 255 149 0 255 
0 209 255 0 255 209 0 255 119 0 255 30 0 255 30 59 255 0 150 255 0 150 255 0 150 255 0 150 255 0 150 255 0 150 255 0 59 255 0 0 255 30 0 255 30 0 255 119 0 255 209 0 255 119 0 255 30 59 255 0 150 255 0 240 255 0 255 179 0 255 89 0 255 89 0 0 0 0 255 89 0 255 89 0 255 89 0 255 89 0 255 89 0 255 89 0 255 89 0 255 89 0 255 89 0 255 89 0 255 89 0 255 89 0 255 179 0 240 255 0 150 255 0 59 255 0 0 255 30 0 255 119 0 255 209 0 209 255 0 119 255 0 29 255 60 0 255 149 0 255 
0 209 255 0 255 209 0 255 209 0 255 119 0 255 30 0 255 30 59 255 0 59 255 0 59 255 0 59 255 0 59 255 0 59 255 0 0 255 30 0 255 30 0 255 119 0 255 209 0 255 209 0 255 119 0 255 30 59 255 0 150 255 0 240 255 0 255 179 0 255 89 0 0 0 0 0 0 0 0 0 0 0 0 0 0 0 0 0 0 0 0 0 0 0 0 0 0 0 0 0 0 0 0 0 0 0 0 0 0 0 0 255 89 0 255 179 0 240 255 0 150 255 0 59 255 0 0 255 30 0 255 119 0 255 209 0 209 255 0 119 255 0 29 255 60 0 255 149 0 255 
0 119 255 0 209 255 0 255 209 0 255 209 0 255 119 0 255 119 0 255 30 0 255 30 0 255 30 0 255 30 0 255 30 0 255 30 0 255 119 0 255 119 0 255 209 0 255 209 0 255 209 0 255 119 0 255 30 59 255 0 150 255 0 240 255 0 255 179 0 255 89 0 255 89 0 255 89 0 255 89 0 255 89 0 255 89 0 255 89 0 255 89 0 255 89 0 255 89 0 255 89 0 255 89 0 255 89 0 0 0 0 255 89 0 255 179 0 240 255 0 150 255 0 59 255 0 0 255 30 0 255 119 0 255 209 0 209 255 0 119 255 0 29 255 60 0 255 149 0 255 
0 29 255 0 119 255 0 209 255 0 209 255 0 255 209 0 255 209 0 255 119 0 255 119 0 255 119 0 255 119 0 255 119 0 255 119 0 255 209 0 255 209 0 209 255 0 209 255 0 255 209 0 255 119 0 255 30 59 255 0 150 255 0 150 255 0 240 255 0 255 179 0 255 179 0 255 179 0 255 179 0 255 179 0 255 179 0 255 179 0 255 179 0 255 179 0 255 179 0 255 179 0 255 179 0 255 89 0 255 89 0 255 89 0 255 179 0 240 255 0 150 255 0 59 255 0 0 255 30 0 255 119 0 255 209 0 209 255 0 119 255 0 29 255 60 0 255 149 0 255 
0 29 255 0 29 255 0 119 255 0 209 255 0 209 255 0 209 255 0 255 209 0 255 209 0 255 209 0 255 209 0 255 209 0 255 209 0 209 255 0 209 255 0 209 255 0 209 255 0 209 255 0 255 209 0 255 119 0 255 30 59 255 0 150 255 0 150 255 0 240 255 0 240 255 0 240 255 0 240 255 0 240 255 0 240 255 0 240 255 0 240 255 0 240 255 0 240 255 0 240 255 0 240 255 0 255 179 0 255 179 0 255 179 0 240 255 0 150 255 0 150 255 0 59 255 0 0 255 30 0 255 119 0 255 209 0 209 255 0 119 255 0 29 255 60 0 255 149 0 255 
60 0 255 0 29 255 0 29 255 0 119 255 0 119 255 0 209 255 0 209 255 0 209 255 0 209 255 0 209 255 0 209 255 0 209 255 0 209 255 0 119 255 0 119 255 0 119 255 0 209 255 0 255 209 0 255 119 0 255 30 0 255 30 59 255 0 150 255 0 150 255 0 150 255 0 150 255 0 150 255 0 150 255 0 150 255 0 150 255 0 150 255 0 150 255 0 150 255 0 150 255 0 150 255 0 240 255 0 240 255 0 240 255 0 150 255 0 150 255 0 59 255 0 0 255 30 0 255 119 0 255 209 0 209 255 0 209 255 0 119 255 0 29 255 60 0 255 149 0 255 
149 0 255 60 0 255 60 0 255 0 29 255 0 29 255 0 119 255 0 119 255 0 119 255 0 119 255 0 119 255 0 119 255 0 119 255 0 119 255 0 29 255 0 29 255 0 119 255 0 209 255 0 209 255 0 255 209 0 255 119 0 255 30 0 255 30 59 255 0 59 255 0 59 255 0 59 255 0 59 255 0 59 255 0 59 255 0 59 255 0 59 255 0 59 255 0 59 255 0 59 255 0 150 255 0 150 255 0 150 255 0 150 255 0 150 255 0 59 255 0 0 255 30 0 255 30 0 255 119 0 255 209 0 209 255 0 119 255 0 29 255 60 0 255 149 0 255 239 0 255 
239 0 255 149 0 255 149 0 255 60 0 255 60 0 255 0 29 255 0 29 255 0 29 255 0 29 255 0 29 255 0 29 255 0 29 255 0 29 255 60 0 255 60 0 255 0 29 255 0 119 255 0 209 255 0 255 209 0 255 209 0 255 119 0 255 119 0 255 30 0 255 30 0 255 30 0 255 30 0 255 30 0 255 30 0 255 30 0 255 30 0 255 30 0 255 30 0 255 30 0 255 30 59 255 0 59 255 0 59 255 0 59 255 0 59 255 0 0 255 30 0 255 30 0 255 119 0 255 209 0 209 255 0 209 255 0 119 255 0 29 255 60 0 255 149 0 255 239 0 255 
239 0 255 239 0 255 149 0 255 149 0 255 149 0 255 60 0 255 60 0 255 60 0 255 60 0 255 60 0 255 60 0 255 60 0 255 60 0 255 149 0 255 60 0 255 0 29 255 0 29 255 0 119 255 0 209 255 0 209 255 0 255 209 0 255 209 0 255 119 0 255 119 0 255 119 0 255 119 0 255 119 0 255 119 0 255 119 0 255 119 0 255 119 0 255 119 0 255 119 0 255 119 0 255 30 0 255 30 0 255 30 0 255 30 0 255 30 0 255 119 0 255 119 0 255 209 0 255 209 0 209 255 0 119 255 0 29 255 60 0 255 149 0 255 149 0 255 239 0 255 
255 0 180 255 0 180 239 0 255 239 0 255 239 0 255 149 0 255 149 0 255 149 0 255 149 0 255 149 0 255 149 0 255 149 0 255 149 0 255 239 0 255 149 0 255 60 0 255 0 29 255 0 29 255 0 119 255 0 209 255 0 209 255 0 209 255 0 255 209 0 255 209 0 255 209 0 255 209 0 255 209 0 255 209 0 255 209 0 255 209 0 255 209 0 255 209 0 255 209 0 255 209 0 255 119 0 255 119 0 255 119 0 255 119 0 255 119 0 255 209 0 255 209 0 209 255 0 209 255 0 119 255 0 29 255 0 29 255 60 0 255 149 0 255 239 0 255 255 0 180 
