P3
6 8
255
204 255 0 204 255 0 204 255 0 204 255 0 0 255 101 0 101 255 
204 255 0 0 0 0 0 0 0 204 255 0 0 255 101 0 101 255 
204 255 0 204 255 0 204 255 0 204 255 0 0 255 101 0 101 255 
0 255 101 0 255 101 0 255 101 0 255 101 0 101 255 203 0 255 
0 101 255 0 101 255 0 101 255 0 101 255 0 101 255 0 101 255 
203 0 255 203 0 255 203 0 255 0 101 255 0 255 101 0 255 101 
255 0 0 203 0 255 0 101 255 0 255 101 204 255 0 204 255 0 
255 0 0 203 0 255 0 101 255 0 255 101 204 255 0 0 0 0 
